<svg xmlns="http://www.w3.org/2000/svg" xmlns:xlink="http://www.w3.org/1999/xlink" version="1.1" x="0px" y="0px" viewBox="0 0 100 100" enable-background="new 0 0 100 100" xml:space="preserve"><path fill="none" stroke="#43AC6A" stroke-width="4" stroke-linecap="round" stroke-linejoin="round" stroke-miterlimit="22.9256" d="  M46.5,75.8c0,2.6-1,5.3-3,7.3c-2,2-4.7,3-7.3,3c-2.6,0-5.3-1-7.3-3h0c-0.9-0.9-1.5-1.9-1.9-2.9c-0.4-1-0.7-2-1-2.9  c-0.2-0.8-0.3-1.4-0.4-2c-0.1-0.8-0.1-1.2-2.5-1.2c-1.2,0-2.3-0.3-3.3-0.8c-1.1-0.5-2.1-1.3-3-2.2v0c-1-1-1.7-2.1-2.2-3.3  c-0.5-1.3-0.8-2.6-0.8-4c0-1.3,0.3-2.7,0.8-4c0.5-1.2,1.3-2.4,2.2-3.3v0c2-2,4.7-3,7.3-3c10.9,0,6.1,5.6,18.4-7.5  c18.2-18.3,12.1-12.2,10.9-21.8c0-2.6,1-5.3,3-7.3c2-2,4.7-3,7.3-3c2.6,0,5.3,1,7.3,3c1.7,1.7,2.3,3.7,2.8,5.6l0.1,0.2l0.2,0.7  c0.5,1.9,0.7,2.4,2.7,2.5c1.1,0.1,2.3,0.4,3.3,0.9c1,0.5,2,1.2,2.9,2.1l0,0c1,1,1.7,2.1,2.2,3.3l0,0c0.5,1.3,0.8,2.6,0.8,4  c0,1.3-0.3,2.7-0.8,4c-0.5,1.2-1.3,2.4-2.2,3.4l0,0c-2,2-4.7,3-7.3,3c-9.5,0-3.5-7.2-21.8,10.9C42.1,69.2,46.5,64.9,46.5,75.8  L46.5,75.8z"/></svg>