<?xml version="1.0" encoding="utf-8"?>
<svg version="1.1" x="0px" y="0px" viewBox="0 0 100 100" enable-background="new 0 0 100 100" xmlns="http://www.w3.org/2000/svg">
  <g>
    <circle cx="34.33" cy="38.562" r="1.99" style="fill: rgb(0, 123, 255);"/>
    <circle cx="42.331" cy="44.589" r="1.989" style="fill: rgb(0, 123, 255);"/>
    <path d="M59.575,46.579c1.099,0,1.99-0.893,1.99-1.99c0-1.097-0.894-1.989-1.99-1.989c-1.096,0-1.987,0.893-1.987,1.989   C57.588,45.687,58.479,46.579,59.575,46.579z" style="fill: rgb(0, 123, 255);"/>
    <circle cx="50.934" cy="38.562" r="1.99" style="fill: rgb(0, 123, 255);"/>
    <path d="M67.536,40.553c1.099,0,1.991-0.893,1.991-1.991c0-1.098-0.894-1.989-1.991-1.989s-1.989,0.893-1.989,1.989   C65.547,39.659,66.439,40.553,67.536,40.553z" style="fill: rgb(0, 123, 255);"/>
    <circle cx="37.11" cy="51.348" r="1.761" style="fill: rgb(0, 123, 255);"/>
    <circle cx="44.25" cy="57.878" r="1.761" style="fill: rgb(0, 123, 255);"/>
    <path d="M57.647,59.639c0.973,0,1.763-0.789,1.763-1.761s-0.79-1.76-1.763-1.76c-0.972,0-1.761,0.788-1.761,1.76   S56.676,59.639,57.647,59.639z" style="fill: rgb(0, 123, 255);"/>
    <circle cx="50.934" cy="51.348" r="1.761" style="fill: rgb(0, 123, 255);"/>
    <circle cx="64.756" cy="51.348" r="1.761" style="fill: rgb(0, 123, 255);"/>
    <circle cx="38.035" cy="64.149" r="1.761" style="fill: rgb(0, 123, 255);"/>
    <circle cx="44.25" cy="68.833" r="1.761" style="fill: rgb(0, 123, 255);"/>
    <path d="M57.647,70.594c0.973,0,1.763-0.79,1.763-1.762c0-0.971-0.79-1.761-1.763-1.761c-0.972,0-1.761,0.79-1.761,1.761   C55.887,69.804,56.676,70.594,57.647,70.594z" style="fill: rgb(0, 123, 255);"/>
    <circle cx="50.934" cy="64.149" r="1.761" style="fill: rgb(0, 123, 255);"/>
    <circle cx="63.832" cy="64.149" r="1.761" style="fill: rgb(0, 123, 255);"/>
    <circle cx="38.035" cy="74.428" r="1.762" style="fill: rgb(0, 123, 255);"/>
    <circle cx="44.25" cy="79.109" r="1.763" style="fill: rgb(0, 123, 255);"/>
    <path d="M57.647,80.872c0.973,0,1.763-0.791,1.763-1.763c0-0.971-0.79-1.761-1.763-1.761c-0.972,0-1.761,0.79-1.761,1.761   C55.887,80.081,56.676,80.872,57.647,80.872z" style="fill: rgb(0, 123, 255);"/>
    <circle cx="50.934" cy="74.428" r="1.762" style="fill: rgb(0, 123, 255);"/>
    <circle cx="63.832" cy="74.428" r="1.762" style="fill: rgb(0, 123, 255);"/>
    <path d="M94.105,39.561l-4.417-3.897c-0.775-0.684-2.144-1.492-3.116-1.842l-9.085-3.266c-0.88-0.315-1.953-0.203-2.828,0.23   c-0.882-0.514-2.192-1.026-3.121-1.208l-4.405-0.86c0.013-0.049,0.037-0.093,0.043-0.145c0.175-1.508,0.36-2.252,0.731-3.136   c1.771-0.274,5.421-1.309,6.084-5.164c0.271-1.578,0.003-2.982-0.776-4.063c-0.805-1.118-2.151-1.873-3.791-2.124   c-2.823-0.44-5.388,1.395-6.234,3.414c-0.207,0.493,0.025,1.059,0.518,1.265c0.488,0.205,1.06-0.024,1.266-0.519   c0.547-1.304,2.285-2.538,4.159-2.25c1.121,0.172,2.015,0.649,2.515,1.344c0.476,0.659,0.623,1.536,0.439,2.604   c-0.5,2.909-3.616,3.514-4.934,3.639c-0.344,0.034-0.643,0.246-0.786,0.558c-0.646,1.406-0.896,2.349-1.11,4.208l-3.194-0.624   c-1.021-0.201-2.226,0.18-3.043,0.875c-2.521-1.089-5.003-1.716-7.464-1.875c-0.018-1.13,0.063-1.809,0.262-2.605   c1.71-0.54,5.159-2.115,5.231-6.026c0.028-1.601-0.449-2.948-1.383-3.899c-0.967-0.983-2.41-1.524-4.067-1.524   c-2.858,0-5.116,2.195-5.646,4.319c-0.129,0.518,0.186,1.042,0.704,1.171c0.516,0.13,1.042-0.185,1.172-0.703   c0.344-1.372,1.882-2.854,3.77-2.854c1.136,0,2.089,0.336,2.688,0.946c0.57,0.58,0.85,1.425,0.829,2.509   c-0.055,2.951-3.043,4.022-4.325,4.346c-0.334,0.084-0.597,0.34-0.693,0.672c-0.369,1.29-0.495,2.193-0.477,3.625   c-2.675,0.094-5.335,0.738-8.01,1.937c-0.817-0.719-2.044-1.115-3.086-0.911l-2.649,0.517c-0.115-1.025-0.103-1.683,0.006-2.456   c1.643-0.716,4.908-2.644,4.569-6.542c-0.139-1.594-0.755-2.884-1.782-3.731c-1.062-0.878-2.555-1.269-4.206-1.091   c-2.842,0.299-4.857,2.72-5.161,4.887c-0.075,0.529,0.294,1.017,0.823,1.091c0.524,0.075,1.018-0.293,1.091-0.823   c0.197-1.401,1.572-3.036,3.449-3.234c1.128-0.119,2.114,0.116,2.773,0.66c0.628,0.518,0.993,1.328,1.087,2.408   c0.256,2.941-2.604,4.319-3.845,4.775c-0.324,0.119-0.559,0.401-0.62,0.74c-0.233,1.331-0.263,2.244-0.09,3.687l-4.922,0.962   c-1.014,0.198-2.487,0.79-3.357,1.348l-0.098,0.063c-0.802-0.366-1.75-0.468-2.554-0.22l-9.229,2.833   c-0.987,0.303-2.393,1.047-3.198,1.693l-4.596,3.686c-1.098,0.881-1.343,2.542-0.547,3.702l4.174,6.088   c0.767,1.118,2.359,1.614,3.627,1.127l1.874-0.722c0.156-0.061,0.319-0.057,0.458,0.012c0.138,0.067,0.24,0.194,0.289,0.355   c0.034,0.113,3.388,11.452,4.258,19.708c0.857,8.133-1.259,15.118-1.281,15.188c-0.219,0.708-0.116,1.43,0.28,1.98   c0.396,0.55,1.049,0.876,1.788,0.893c0.025,0,0.708,0.017,1.896,0.017c3.245,0,10.257-0.11,17.906-0.916   c3.222-0.339,6.767-0.844,10.532-1.497c0.767-0.004,1.524-0.016,2.271-0.032c1.236,0.236,2.456,0.524,3.646,0.707   c10.386,1.593,19.646,1.673,19.738,1.673c0.02,0,0.039,0,0.061,0c0.706,0,1.35-0.352,1.773-0.86   c0.437-0.522,0.602-1.265,0.453-1.98c-0.017-0.083-1.71-8.373-0.65-15.274c1.074-6.997,5.173-19.375,5.214-19.5   c0.065-0.198,0.189-0.293,0.282-0.333c0.095-0.041,0.245-0.072,0.436,0.013l2.834,1.278c0.011,0.004,0.023,0.002,0.034,0.007   c0.087,0.035,0.175,0.052,0.268,0.061c0.026,0.003,0.055,0.015,0.084,0.015c0.003,0,0.007,0.002,0.011,0.002   c0.028,0,0.057-0.017,0.085-0.019c0.098-0.01,0.195-0.024,0.287-0.062c0.044-0.019,0.079-0.05,0.119-0.074   c0.075-0.045,0.145-0.093,0.206-0.157c0.015-0.014,0.032-0.02,0.045-0.034l5.921-7.073C95.304,42.175,95.179,40.51,94.105,39.561z    M57.637,30.11c-1.229,1.2-3.74,3.093-7.344,3.093c-3.551,0-6.057-1.863-7.304-3.064C47.891,28.095,52.6,28.085,57.637,30.11z    M29.418,31.476l9.477-1.851c0.561-0.11,1.314,0.221,1.617,0.644c0.142,0.199,3.547,4.868,9.781,4.868   c6.236,0,9.642-4.669,9.783-4.868c0.303-0.423,1.06-0.757,1.617-0.644l9.477,1.851c0.769,0.15,2.023,0.654,2.683,1.078l4.955,3.182   c0.328,0.21,0.434,0.667,0.231,0.999l-3.92,6.47c-0.24,0.396-0.926,0.668-1.369,0.542l-1.4-0.39   c-0.226-0.063-0.456-0.095-0.685-0.095c-1.189,0-2.199,0.863-2.402,2.052c-0.092,0.533-2.225,13.134-2.225,20.382   c0,7.335,2.952,15.322,3.078,15.658c0.049,0.132,0.051,0.245,0.005,0.322c-0.047,0.075-0.147,0.127-0.286,0.146   c-0.092,0.012-9.161,1.163-19.542,1.163c-10.378,0-19.45-1.151-19.541-1.165c-0.126-0.016-0.219-0.058-0.251-0.116   c-0.033-0.058-0.022-0.16,0.028-0.277c0.123-0.288,3.021-7.142,3.021-15.73c0-8.484-2.112-19.919-2.202-20.401   c-0.225-1.204-1.228-2.044-2.439-2.044c-0.224,0-0.447,0.03-0.667,0.088l-1.94,0.52c-0.433,0.117-1.073-0.157-1.288-0.553   l-3.513-6.492c-0.193-0.356-0.062-0.86,0.279-1.079l4.956-3.183C27.395,32.129,28.649,31.625,29.418,31.476z M30.272,74.499   c-0.46,0.049-0.655-0.063-1.014-0.267c-0.462-0.264-1.098-0.625-2.171-0.511c-1.076,0.112-1.62,0.597-2.018,0.948   c-0.307,0.273-0.478,0.424-0.936,0.473c-0.458,0.048-0.655-0.064-1.014-0.268c-0.231-0.132-0.503-0.286-0.854-0.396   c0.011-0.397,0.018-0.8,0.018-1.211c0.388,0.217,0.891,0.466,1.656,0.466c0.125,0,0.257-0.008,0.396-0.021   c1.075-0.112,1.62-0.596,2.017-0.948c0.308-0.272,0.478-0.424,0.936-0.473c0.461-0.044,0.657,0.064,1.015,0.268   c0.462,0.263,1.096,0.62,2.17,0.51c0.167-0.018,0.303-0.056,0.443-0.09c-0.092,0.5-0.191,0.979-0.292,1.44   C30.525,74.456,30.414,74.483,30.272,74.499z M31.287,70.608c-0.025,0.021-0.057,0.047-0.082,0.066   c-0.308,0.273-0.476,0.424-0.934,0.473c-0.46,0.049-0.656-0.063-1.015-0.269c-0.462-0.262-1.097-0.621-2.172-0.509   c-1.076,0.112-1.62,0.597-2.018,0.948c-0.308,0.273-0.478,0.424-0.936,0.473c-0.458,0.05-0.655-0.063-1.014-0.268   c-0.239-0.136-0.526-0.295-0.894-0.404c-0.022-0.43-0.054-0.865-0.092-1.304c0.011,0.005,0.02,0.01,0.03,0.016   c0.402,0.229,0.935,0.531,1.775,0.531c0.125,0,0.257-0.007,0.396-0.021c1.076-0.111,1.62-0.597,2.017-0.948   c0.308-0.273,0.478-0.423,0.936-0.472c0.46-0.045,0.656,0.062,1.014,0.267c0.462,0.264,1.097,0.625,2.17,0.511   c0.376-0.039,0.683-0.126,0.943-0.234C31.378,69.852,31.335,70.232,31.287,70.608z M17.741,48.993   c-0.204-0.684-0.661-1.229-1.288-1.538c-0.628-0.308-1.339-0.338-2.005-0.081l-1.874,0.722c-0.436,0.166-1.075-0.031-1.339-0.416   l-4.174-6.088c-0.229-0.334-0.153-0.85,0.163-1.103l4.596-3.685c0.612-0.491,1.806-1.123,2.556-1.353l8.18-2.51l-1.822,1.171   c-1.186,0.761-1.603,2.388-0.933,3.625l3.512,6.492c0.632,1.167,2.202,1.848,3.489,1.5l1.94-0.52   c0.333-0.09,0.641,0.109,0.704,0.442c0.021,0.117,2.17,11.742,2.17,20.048c0,0.437-0.012,0.868-0.027,1.296   c-0.145,0.104-0.271,0.211-0.383,0.311c-0.308,0.273-0.476,0.424-0.934,0.472c-0.46,0.049-0.655-0.064-1.014-0.269   c-0.462-0.263-1.097-0.621-2.171-0.511c-1.077,0.114-1.621,0.597-2.018,0.95c-0.307,0.272-0.478,0.424-0.936,0.473   c-0.458,0.049-0.655-0.064-1.014-0.27c-0.301-0.171-0.69-0.37-1.213-0.467C20.837,59.458,17.873,49.438,17.741,48.993z    M20.979,85.38c-0.127-0.003-0.226-0.036-0.265-0.09c-0.039-0.055-0.039-0.157-0.002-0.278c0.064-0.205,1.095-3.601,1.453-8.456   c0.402,0.229,0.933,0.529,1.773,0.529c0.125,0,0.257-0.007,0.396-0.021c1.075-0.112,1.62-0.597,2.017-0.948   c0.308-0.272,0.478-0.424,0.936-0.473c0.46-0.045,0.656,0.063,1.014,0.268c0.41,0.233,0.972,0.522,1.836,0.514   c-0.694,2.59-1.374,4.21-1.388,4.241c-0.292,0.681-0.266,1.409,0.071,2c0.337,0.589,0.951,0.98,1.684,1.073   c0.058,0.008,3.817,0.484,9.255,0.829C29.76,85.567,21.068,85.384,20.979,85.38z M76.651,68.841   c-1.112,7.253,0.596,15.594,0.668,15.945c0.028,0.136,0.013,0.249-0.044,0.317c-0.058,0.069-0.172,0.094-0.305,0.102   c-0.069-0.002-5.398-0.142-12.47-0.905c3.386-0.282,5.536-0.555,5.58-0.561c0.725-0.092,1.342-0.479,1.694-1.062   s0.407-1.312,0.151-1.996c-0.029-0.079-2.956-8.003-2.956-14.982c0-3.689,0.592-8.939,1.159-13.145l9.975,2.331   C78.837,59.118,77.273,64.778,76.651,68.841z M80.667,53.031l-10.27-2.402c0.051-0.351,0.1-0.691,0.148-1.017l10.426,2.439   C80.874,52.362,80.773,52.687,80.667,53.031z M92.903,42.032l-5.451,6.511l-2.165-0.978c-0.646-0.291-1.376-0.299-2.007-0.024   c-0.63,0.275-1.119,0.819-1.341,1.49c-0.028,0.086-0.168,0.508-0.381,1.172l-10.723-2.507c0.195-1.25,0.326-2.025,0.33-2.056   c0.057-0.327,0.337-0.513,0.663-0.421l1.4,0.39c1.269,0.356,2.864-0.287,3.541-1.404l3.922-6.47   c0.741-1.225,0.365-2.852-0.84-3.627l-2.297-1.476l8.363,3.006c0.739,0.266,1.901,0.954,2.49,1.473l4.416,3.896   C93.116,41.266,93.151,41.734,92.903,42.032z" style="fill: rgb(47, 47, 47);"/>
  </g>
</svg>