<svg xmlns="http://www.w3.org/2000/svg" xmlns:xlink="http://www.w3.org/1999/xlink" version="1.1" x="0px" y="0px" viewBox="0 0 100 100" style="enable-background:new 0 0 100 100;" xml:space="preserve"><g><path fill="#F04124" d="M14.428,58.434v29.27c0,1.422,1.207,2.578,2.69,2.578h14.668v-9.872c0-10.059,8.154-18.214,18.214-18.214   s18.214,8.155,18.214,18.214v9.872h14.669c1.482,0,2.689-1.156,2.689-2.578V58.562L50,24.771L14.428,58.434z M62.277,45.132   c1.98,0,3.586,1.605,3.586,3.585c0,1.268-0.658,2.382-1.652,3.02c0.994,0.638,1.652,1.751,1.652,3.02   c0,1.979-1.605,3.585-3.586,3.585c-1.979,0-3.887-1.436-5.361-2.968H43.084c-1.474,1.532-3.383,2.968-5.362,2.968   c-1.98,0-3.585-1.605-3.585-3.585c0-1.269,0.658-2.382,1.651-3.02c-0.993-0.638-1.651-1.752-1.651-3.02   c0-1.98,1.605-3.585,3.585-3.585c1.979,0,3.888,1.435,5.362,2.967h13.832C58.39,46.567,60.299,45.132,62.277,45.132z    M98.613,60.858c-1.295,1.242-4.361,2.245-6.703,0L50,21.162L8.089,60.858c-1.981,1.899-4.969,1.662-6.704,0   c-1.848-1.771-1.848-4.653,0-6.425l45.263-43.384c0.896-0.858,2.086-1.331,3.352-1.331s2.457,0.473,3.352,1.331l45.262,43.384   C100.462,56.205,100.462,59.088,98.613,60.858z"/></g></svg>