<?xml version="1.0" encoding="utf-8"?>
<svg version="1.1" x="0px" y="0px" viewBox="0 0 100 100" style="enable-background:new 0 0 100 100;" xmlns="http://www.w3.org/2000/svg">
  <style type="text/css">
	.st0{fill:none;stroke:yellow;stroke-width:2;stroke-linecap:round;stroke-linejoin:round;stroke-miterlimit:10;}
</style>
  <path d="M81.421,29.593c0-2.165-1.761-3.926-3.926-3.926c-0.863,0-1.677,0.275-2.345,0.776c-0.668-0.501-1.482-0.776-2.345-0.776  c-2.165,0-3.926,1.761-3.926,3.926c0,1.822,1.248,3.359,2.947,3.8v9.596c-1.693,0.436-2.947,1.976-2.947,3.803  c0,2.165,1.761,3.927,3.926,3.927c0.849,0,1.673-0.282,2.345-0.782c0.671,0.5,1.495,0.782,2.345,0.782  c2.165,0,3.926-1.762,3.926-3.927c0-1.819-1.244-3.354-2.926-3.798v-9.603C80.177,32.947,81.421,31.412,81.421,29.593z   M77.495,44.864c1.062,0,1.926,0.864,1.926,1.927s-0.864,1.927-1.926,1.927c-0.612,0-1.174-0.284-1.543-0.778  c-0.189-0.253-0.486-0.402-0.802-0.402c-0.315,0-0.612,0.148-0.801,0.401c-0.37,0.495-0.932,0.779-1.543,0.779  c-1.062,0-1.926-0.864-1.926-1.927s0.864-1.927,1.926-1.927h0.021c0.552,0,1-0.447,1-1V32.52c0-0.553-0.468-1-1.021-1  c-1.062,0-1.926-0.864-1.926-1.927c0-1.062,0.864-1.926,1.926-1.926c0.612,0,1.174,0.284,1.543,0.778  c0.378,0.507,1.227,0.506,1.604,0c0.369-0.495,0.931-0.778,1.543-0.778c1.062,0,1.926,0.864,1.926,1.926  c0,1.062-0.864,1.927-1.926,1.927c-0.552,0-1,0.447-1,1v11.345C76.495,44.417,76.942,44.864,77.495,44.864z" style="fill: rgb(128, 128, 128);"/>
  <path d="M51.584,43.543c0-1.71-1.335-3.101-2.976-3.101c-0.565,0-1.114,0.171-1.583,0.479c-0.469-0.308-1.018-0.479-1.583-0.479  c-1.641,0-2.976,1.391-2.976,3.101c0,1.348,0.829,2.497,1.99,2.924v6.498c-1.158,0.425-1.99,1.577-1.99,2.927  c0,1.71,1.335,3.102,2.976,3.102c0.565,0,1.114-0.171,1.583-0.479c0.469,0.308,1.018,0.479,1.583,0.479  c1.641,0,2.976-1.392,2.976-3.102c0-1.345-0.826-2.492-1.976-2.922v-6.505C50.758,46.035,51.584,44.888,51.584,43.543z   M48.608,54.79c0.538,0,0.976,0.494,0.976,1.102s-0.438,1.102-0.976,1.102c-0.298,0-0.576-0.153-0.764-0.422  c-0.188-0.267-0.493-0.426-0.819-0.426s-0.631,0.159-0.819,0.426c-0.188,0.269-0.466,0.422-0.764,0.422  c-0.538,0-0.976-0.494-0.976-1.102s0.438-1.102,0.976-1.102h0.014c0.552,0,1-0.447,1-1v-8.146c0-0.553-0.461-1-1.014-1  c-0.538,0-0.976-0.494-0.976-1.102c0-0.606,0.438-1.101,0.976-1.101c0.298,0,0.576,0.153,0.764,0.422  c0.375,0.533,1.263,0.533,1.638,0c0.188-0.269,0.466-0.422,0.764-0.422c0.538,0,0.976,0.494,0.976,1.101  c0,0.607-0.438,1.102-0.976,1.102c-0.552,0-1,0.447-1,1v8.146C47.608,54.343,48.056,54.79,48.608,54.79z" style="fill: rgb(128, 128, 128);"/>
  <path d="M65.063,90h20.042c0.551,0,0.999-0.446,1-0.998l0.019-8.924L89.918,17v-6c0-0.553-0.448-1-1-1H61.063  c-0.265,0-0.52,0.105-0.707,0.293S60.063,10.734,60.063,11l0.002,6.063l3.998,63.019V89C64.063,89.553,64.511,90,65.063,90z   M84.184,79.05H66.002l-3.878-61.112H87.86L84.184,79.05z M71.948,88c0.35-1.417,1.623-2.476,3.146-2.476s2.797,1.058,3.146,2.476  H71.948z M80.266,88c-0.378-2.526-2.542-4.476-5.172-4.476s-4.794,1.95-5.172,4.476h-3.859v-6.95h18.059L84.107,88H80.266z   M87.919,12l0.001,3.938H62.064l0-3.938H87.919z" style="fill: rgb(67, 172, 106);"/>
  <path d="M39.855,90h14.325c0.551,0,0.999-0.446,1-0.998l0.014-6.769l3.573-47.956l0-4.56c0-0.265-0.105-0.52-0.293-0.707  s-0.442-0.293-0.707-0.293H36.282c-0.552,0-1,0.447-1,1l0.003,4.634l3.571,47.881V89C38.855,89.553,39.303,90,39.855,90z   M53.266,81.197H40.784L37.353,35.23h19.341L53.266,81.197z M45.137,88c0.302-0.82,1.033-1.401,1.888-1.401S48.611,87.18,48.913,88  H45.137z M50.983,88c-0.369-1.937-2.002-3.401-3.958-3.401S43.436,86.063,43.067,88h-2.212v-4.803h12.337L53.183,88H50.983z   M56.769,30.718l0.001,2.513H37.282v-2.513H56.769z" style="fill: rgb(67, 172, 106);"/>
  <path d="M26.427,43.543c0-1.71-1.335-3.101-2.976-3.101c-0.565,0-1.114,0.171-1.583,0.479c-0.469-0.308-1.018-0.479-1.583-0.479  c-1.641,0-2.976,1.391-2.976,3.101c0,1.348,0.829,2.497,1.99,2.924v6.498c-1.158,0.425-1.99,1.577-1.99,2.927  c0,1.71,1.335,3.102,2.976,3.102c0.565,0,1.114-0.171,1.583-0.479c0.469,0.308,1.018,0.479,1.583,0.479  c1.641,0,2.976-1.392,2.976-3.102c0-1.345-0.825-2.492-1.976-2.921v-6.507C25.602,46.035,26.427,44.888,26.427,43.543z   M23.452,54.79c0.538,0,0.976,0.494,0.976,1.102s-0.438,1.102-0.976,1.102c-0.298,0-0.577-0.153-0.765-0.422  c-0.188-0.267-0.493-0.426-0.819-0.426s-0.631,0.159-0.819,0.426c-0.188,0.269-0.466,0.422-0.764,0.422  c-0.538,0-0.976-0.494-0.976-1.102s0.438-1.102,0.976-1.102h0.014c0.552,0,1-0.447,1-1v-8.146c0-0.553-0.461-1-1.014-1  c-0.538,0-0.976-0.494-0.976-1.102c0-0.606,0.438-1.101,0.976-1.101c0.298,0,0.576,0.153,0.764,0.422  c0.375,0.533,1.263,0.533,1.638,0c0.188-0.269,0.467-0.422,0.765-0.422c0.538,0,0.976,0.494,0.976,1.101  c0,0.607-0.438,1.102-0.976,1.102c-0.552,0-1,0.447-1,1v8.146C22.452,54.343,22.899,54.79,23.452,54.79z" style="fill: rgb(128, 128, 128);"/>
  <path d="M14.699,90h14.325c0.551,0,0.999-0.446,1-0.998l0.014-6.769l3.574-47.956v-4.56c0-0.553-0.448-1-1-1H11.125  c-0.552,0-1,0.447-1,1l0.003,4.634l3.571,47.881V89C13.699,89.553,14.146,90,14.699,90z M28.109,81.197H15.627L12.196,35.23h19.341  L28.109,81.197z M19.98,88c0.302-0.82,1.033-1.401,1.888-1.401S23.455,87.18,23.756,88H19.98z M25.826,88  c-0.369-1.937-2.002-3.401-3.958-3.401S18.28,86.063,17.911,88h-2.212v-4.803h12.337L28.026,88H25.826z M31.612,30.718l0.002,2.513  H12.125v-2.513H31.612z" style="fill: rgb(67, 172, 106);"/>
</svg>